PathFileType	4	(X/Y/Z)	C:/Users/beibeiliu/ov580/test_trc/User2\sequence.29_training_dense_left.trc
DataRate	CameraRate	NumFrames	NumMarkers	Units	OrigDataRate	OrigDataStartFrame	OrigNumFrames
120	120	9	19	mm	120	229	365
Frame#	Time	ThumbCMC			ThumbMCP			ThumbIP			ThumbTip			IndexMCP			IndexPIP			IndexTip			MiddleMCP			MiddlePIP			MiddleTip			RingMCP			RingPIP			RingTip			PinkyMCP			PinkyPIP			PinkyTip			BackHand1			BackHand2			BackHand3	
		X0	Y0	Z0	X1	Y1	Z1	X2	Y2	Z2	X3	Y3	Z3	X4	Y4	Z4	X5	Y5	Z5	X6	Y6	Z6	X7	Y7	Z7	X8	Y8	Z8	X9	Y9	Z9	X10	Y10	Z10	X11	Y11	Z11	X12	Y12	Z12	X13	Y13	Z13	X14	Y14	Z14	X15	Y15	Z15	X16	Y16	Z16	X17	Y17	Z17	X18	Y18	Z18	
228	1.9	-218.183	3.32033	99.5694	-191.525	25.2665	79.768	-157.023	20.369	64.6695	-131.658	1.44516	59.7977	-203.248	-19.6162	21.55	-198.927	-9.13778	-5.625	-181.873	16.7277	-23.4176	-183.551	-40.8802	22.613	-168.156	-35.8842	-10.3253	-147.857	-16.4774	-29.6632	-158.584	-49.6544	40.6104	-146.813	-45.713	9.1375	-131.255	-30.934	-10.2513	-137.181	-47.7724	64.749	-114.045	-48.5575	41.6805	-99.6699	-41.0516	22.0903	-179.85	-54.2077	86.5605	-195.544	-59.9412	115.449	-218.599	-39.5264	90.4058	
229	1.90833	-216.188	0.707181	99.4256	-190.604	24.3109	80.414	-157.469	22.0528	63.0151	-130.453	6.02164	53.7355	-207.466	-20.528	24.0007	-200.21	-10.2398	-5.44333	-182.851	10.142	-21.8328	-185.48	-42.7267	26.2832	-170.581	-39.0408	-11.6434	-148.854	-23.4707	-30.2679	-159.58	-53.7812	38.2033	-143.783	-51.2886	11.8617	-125.943	-34.3889	-11.7686	-135.877	-51.4761	61.4753	-118.537	-51.2194	46.1421	-97.9254	-48.367	24.832	-181.555	-54.058	88.3196	-193.226	-62.5448	118.616	-214.252	-43.3434	89.1236	
230	1.91667	-217.764	1.24794	98.0546	-190.094	21.6223	76.5044	-160.44	27.3634	58.5738	-134.526	18.9283	47.3642	-206.293	-24.2139	24.1523	-197.936	-13.4225	-7.37546	-180.406	5.61484	-25.9489	-182.077	-49.2067	26.357	-172.258	-44.3137	-9.81753	-151.347	-25.8729	-35.4922	-162.854	-53.8813	37.1932	-144.761	-56.5668	14.3969	-131.766	-40.365	-11.0736	-137.184	-53.6175	64.5683	-116.143	-53.3878	41.6424	-97.3587	-49.4858	23.2856	-181.291	-57.7732	85.8916	-196.278	-59.7246	114.799	-216.281	-44.8932	90.183	
231	1.925	-218.57	-0.752431	94.1187	-196.556	26.1882	73.0191	-168.267	33.7944	54.3262	-144.683	36.5771	41.7554	-208.783	-26.157	20.5732	-201.684	-17.7262	-7.15072	-180.309	-0.728217	-30.4413	-187.983	-49.9888	22.0913	-173.391	-47.4504	-11.9554	-153.659	-33.7642	-37.5233	-162.501	-58.4096	36.8024	-144.429	-59.6891	14.1431	-130.201	-45.0588	-11.4346	-141.597	-53.4118	63.531	-119.068	-54.5662	43.5349	-101.442	-53.5426	26.8047	-184.558	-59.2474	86.6113	-197.001	-62.5616	116.419	-218.199	-45.581	89.9077	
232	1.93333	-221.125	-3.10205	93.9064	-198.174	19.9545	75.8218	-175.898	37.0412	55.0779	-155.473	44.2448	43.0684	-208.609	-33.795	20.5836	-204.196	-25.0431	-6.91981	-188.707	-11.0254	-28.7469	-185.707	-58.5369	24.0442	-175.276	-55.7739	-9.57709	-156.923	-45.7848	-33.0445	-159.56	-65.9621	39.0788	-147.612	-64.1976	14.3562	-129.329	-52.2179	-10.7871	-140.191	-60.1016	61.9861	-116.347	-59.9892	45.7691	-98.075	-55.2498	24.9668	-186.535	-61.5224	91.5262	-196.918	-64.9265	119.93	-220.816	-49.2654	94.3569	
233	1.94167	-223.944	-5.88606	97.9206	-204.2	19.6545	78.204	-184.231	40.6212	57.1828	-161.336	48.3967	37.8451	-209.543	-38.3671	24.2732	-204.01	-33.4098	-7.34795	-187.853	-21.3944	-30.4693	-187.655	-60.8452	28.3671	-175.807	-62.9689	-3.90187	-154.589	-50.8493	-34.6118	-164.532	-66.3167	43.3497	-144.768	-69.7722	18.162	-129.167	-55.3278	-11.2642	-140.771	-62.5231	65.3379	-116.731	-61.1588	44.2763	-98.6806	-54.688	30.3151	-182.688	-67.5508	92.9896	-197.111	-67.7039	122.194	-218.707	-52.9064	91.1497	
234	1.95	-224.551	-5.49606	93.5641	-207.765	21.8033	79.1504	-188.033	41.7172	55.0386	-167.601	49.5845	42.2303	-209.771	-41.4126	21.8595	-202.025	-35.8903	-8.46458	-188.581	-22.797	-30.7151	-188.371	-64.5058	25.2575	-175.172	-64.2074	-7.96988	-156.726	-54.2556	-32.8398	-161.449	-70.7115	38.8584	-147.014	-69.7391	16.8305	-127.388	-56.8849	-8.72017	-141.682	-62.9389	64.4309	-117.149	-62.7742	46.5414	-99.3306	-54.9998	27.3308	-185.629	-67.1356	90.9074	-200.227	-67.4563	120.593	-220.688	-53.1532	93.1566	
235	1.95833	-225.416	-4.36113	98.2417	-208.841	23.5094	76.6944	-190.125	44.2759	55.6417	-167.841	48.6751	38.3471	-207.493	-42.9062	22.7688	-201.841	-36.4689	-4.86113	-182.613	-18.5602	-29.1814	-187.998	-66.18	24.8033	-179.084	-63.6756	-9.18368	-158.883	-55.2935	-33.5457	-162.906	-71.8819	39.4054	-148.904	-70.4855	13.4364	-131.696	-59.2373	-8.1867	-139.751	-66.5979	64.1972	-118.687	-62.4588	42.4786	-104.127	-54.4118	26.5511	-185.208	-66.5826	93.0537	-197.091	-67.4507	124.655	-223.647	-50.8196	90.9085	
236	1.96667	-226.325	-0.683759	96.9889	-209.631	25.6085	75.9825	-188.951	42.0884	50.9113	-167.532	45.2537	33.7831	-211.586	-39.0154	19.24	-198.726	-32.9405	-5.83746	-174.121	-13.6151	-22.9773	-195.715	-63.8582	28.086	-182.503	-65.7367	-9.81964	-166.226	-55.9418	-34.1583	-172.053	-72.4342	39.9592	-153.419	-74.4469	9.95893	-137.627	-60.9855	-12.5999	-144.755	-70.4745	62.9224	-124.572	-66.7983	36.8379	-110.302	-55.4098	18.2256	-192.326	-66.6917	92.482	-200.216	-68.9521	122.225	-223.515	-49.7627	93.7249	
